<?xml version="1.0" encoding="utf-8"?>
<!-- Generator: Adobe Illustrator 26.2.1, SVG Export Plug-In . SVG Version: 6.00 Build 0)  -->
<svg version="1.1" id="Capa_1" xmlns="http://www.w3.org/2000/svg" xmlns:xlink="http://www.w3.org/1999/xlink" x="0px" y="0px"
	 viewBox="0 0 35 35" style="enable-background:new 0 0 35 35;" xml:space="preserve">
<style type="text/css">
	.st0{fill:#FFFFFF;}
</style>
<g>
	<path class="st0" d="M17.02,3.24c8.12,0,14.73,6.34,14.73,14.13S25.14,31.5,17.02,31.5S2.29,25.16,2.29,17.37S8.9,3.24,17.02,3.24
		 M17.02,2.74c-8.41,0-15.23,6.55-15.23,14.63S8.61,32,17.02,32s15.23-6.55,15.23-14.63S25.43,2.74,17.02,2.74L17.02,2.74z"/>
</g>
<path class="st0" d="M25.54,12.84c-0.38,0.02-1.03-0.01-1.75-0.3c-0.96-0.39-1.5-1.03-1.75-1.33c-0.12-0.15-0.67-0.82-0.97-1.87
	c-0.11-0.39-0.16-0.72-0.18-0.97H18V21.1c-0.02,0.12-0.05,0.28-0.11,0.47c-0.05,0.17-0.16,0.5-0.42,0.85
	c-0.25,0.33-0.52,0.51-0.66,0.6c-0.15,0.1-0.51,0.33-1.03,0.42c-0.21,0.04-0.77,0.13-1.39-0.12c-0.45-0.18-0.78-0.34-1.03-0.6
	c-0.26-0.27-0.45-0.66-0.6-1.09c-0.22-0.61-0.08-1.16,0-1.51c0.08-0.33,0.17-0.72,0.48-1.09c0.5-0.6,1.2-0.73,1.51-0.79
	c0.58-0.11,1.07-0.03,1.39,0.06v-2.24v-0.6v-0.18h-1.03c-0.12-0.01-0.28-0.01-0.48,0c-0.17,0.01-0.5,0.05-1.09,0.24
	c-0.32,0.11-0.7,0.23-1.15,0.48c-0.85,0.48-1.36,1.08-1.51,1.27c-0.81,1.01-1,2.07-1.09,2.6c-0.07,0.45-0.22,1.42,0.12,2.6
	c0.15,0.52,0.61,1.79,1.87,2.78c1.25,0.98,2.54,1.11,3.02,1.15c1.28,0.11,2.26-0.23,2.6-0.36c1.18-0.46,1.87-1.18,2.24-1.57
	c0.35-0.37,0.53-0.65,0.6-0.79c0.22-0.38,0.33-0.72,0.42-1.03c0.08-0.27,0.18-0.64,0.24-1.09l0.06-7.31
	c0.09,0.08,0.21,0.19,0.36,0.3c0.5,0.37,0.93,0.55,1.39,0.73c0.42,0.17,0.98,0.38,1.75,0.48c0.39,0.05,0.72,0.06,0.97,0.06
	L25.54,12.84z"/>
</svg>
